<svg width="170" height="33" viewBox="0 0 170 33" fill="none" xmlns="http://www.w3.org/2000/svg">
<path d="M8.02976 25.6481C10.2754 25.6481 12.1358 25.1545 13.6096 24.1674C15.0834 23.179 15.821 21.7422 15.821 19.8571C15.7072 17.314 13.8139 15.4069 10.1397 14.136L8.16548 13.3176C7.735 13.1805 7.4279 13.0461 7.24693 12.909C7.16331 12.8525 7.09483 12.7763 7.0475 12.6872C7.00017 12.598 6.97544 12.4986 6.97548 12.3977C6.97548 11.8301 7.34976 11.5477 8.09831 11.5477C9.02782 11.5477 9.71879 12.0234 10.1726 12.9776L15.2424 11.5463C14.0181 8.50274 11.6587 6.98234 8.16548 6.98234C6.07887 6.98234 4.34323 7.52798 2.95992 8.6179C1.57661 9.70645 0.884274 11.1268 0.884274 12.8734C0.884274 13.419 0.96379 13.9236 1.12282 14.3897C1.28185 14.8558 1.5204 15.2644 1.8371 15.6153C2.15516 15.9677 2.46089 16.2734 2.75564 16.5352C3.0504 16.7957 3.42468 17.0411 3.87984 17.2673C4.33226 17.4949 4.67774 17.6594 4.91629 17.7609C5.15484 17.8637 5.47839 17.983 5.88556 18.1187L6.46411 18.3244L8.50685 19.0729C9.00452 19.2552 9.32943 19.4074 9.47613 19.5322C9.5478 19.5924 9.60482 19.6681 9.64283 19.7536C9.68084 19.8391 9.69884 19.9322 9.69548 20.0257C9.69548 20.6166 9.14161 20.9127 8.02976 20.9127C6.39693 20.9127 5.42081 20.1861 5.10411 18.7329L0 19.8914C0.634758 23.7301 3.31226 25.6494 8.02976 25.6494V25.6481ZM23.9823 25.6481C26.228 25.6481 27.8827 24.7844 28.9494 23.0597V25.2738H35.9577V7.35661H28.9494V17.1673C28.9494 19.1881 28.257 20.1971 26.8737 20.1971C25.4671 20.1971 24.7638 19.1881 24.7638 17.1673V7.35661H17.7554V17.8486C17.7554 23.0487 19.831 25.6494 23.9823 25.6494V25.6481ZM46.059 25.2738V15.4645C46.059 13.4423 46.75 12.4319 48.1333 12.4319C49.5399 12.4319 50.2446 13.4423 50.2446 15.4645V25.2738H57.2516V14.7831C57.2516 9.58307 55.1773 6.98234 51.026 6.98234C48.7804 6.98234 47.1243 7.84605 46.059 9.57073V7.35661H39.0493V25.2738H46.059V25.2738ZM67.1486 25.2738V15.4645C67.1486 13.4423 67.8396 12.4319 69.2243 12.4319C70.6295 12.4319 71.3328 13.4423 71.3328 15.4645V25.2738H78.3426V14.7831C78.3426 9.58307 76.2669 6.98234 72.1156 6.98234C69.87 6.98234 68.2139 7.84605 67.1486 9.57073V7.35661H60.1389V25.2738H67.1486V25.2738ZM89.0553 32.9032L100.419 7.35661H93.1024L89.6311 16.5202L86.5355 7.35661H78.88L86.3312 23.5368L82.1813 32.9032H89.0553ZM107.796 25.6481C110.042 25.6481 111.902 25.1545 113.376 24.1674C114.851 23.179 115.589 21.7422 115.589 19.8571C115.475 17.314 113.581 15.4069 109.906 14.136L107.932 13.3176C107.502 13.1805 107.196 13.0461 107.014 12.909C106.93 12.8525 106.862 12.7763 106.814 12.6872C106.767 12.598 106.742 12.4986 106.742 12.3977C106.742 11.8301 107.116 11.5477 107.865 11.5477C108.795 11.5477 109.487 12.0234 109.941 12.9776L115.01 11.5463C113.785 8.50274 111.427 6.98234 107.934 6.98234C105.847 6.98234 104.111 7.52798 102.728 8.6179C101.343 9.70782 100.652 11.1268 100.652 12.8748C100.652 13.4204 100.732 13.9249 100.89 14.391C101.049 14.8572 101.287 15.2657 101.605 15.6167C101.922 15.969 102.229 16.2748 102.524 16.5366C102.818 16.7971 103.193 17.0425 103.647 17.2687C104.099 17.4963 104.446 17.6608 104.684 17.7623C104.922 17.8651 105.246 17.9844 105.654 18.1201L106.232 18.3257L108.274 19.0743C108.773 19.2566 109.096 19.4088 109.243 19.5336C109.315 19.5936 109.372 19.6693 109.41 19.7548C109.449 19.8403 109.467 19.9335 109.464 20.0271C109.464 20.618 108.908 20.9141 107.796 20.9141C106.165 20.9141 105.189 20.1875 104.871 18.7343L99.7667 19.8914C100.403 23.7301 103.079 25.6494 107.796 25.6494V25.6481ZM121.232 6.26669C122.48 6.26669 123.443 5.97194 124.125 5.38105C124.803 4.79153 125.145 4.04161 125.145 3.13266C125.145 2.20315 124.816 1.44637 124.158 0.869194C123.5 0.287903 122.525 0 121.232 0C119.939 0 118.963 0.289274 118.305 0.869194C117.647 1.44774 117.318 2.20315 117.318 3.13403C117.318 4.04161 117.659 4.79153 118.339 5.38242C119.021 5.97194 119.984 6.26669 121.232 6.26669V6.26669ZM124.736 25.2738V7.35661H117.725V25.2738H124.735H124.736ZM135.347 25.6481C137.729 25.6481 139.429 24.7844 140.45 23.0597V25.2738H147.459V0.647097H140.45V9.605C139.429 7.85702 137.729 6.98234 135.346 6.98234C132.943 6.98234 130.94 7.8625 129.341 9.62282C127.743 11.3818 126.942 13.6123 126.942 16.3159C126.942 19.0167 127.743 21.2486 129.341 23.009C130.94 24.7679 132.943 25.6481 135.346 25.6481H135.347ZM137.253 20.3013C136.254 20.3013 135.454 19.9256 134.854 19.1771C134.252 18.4272 133.952 17.473 133.952 16.3159C133.952 15.1574 134.247 14.2046 134.836 13.4547C135.449 12.7048 136.254 12.3305 137.252 12.3305C138.25 12.3305 139.049 12.7048 139.651 13.4547C140.251 14.2032 140.552 15.1574 140.552 16.3159C140.552 17.473 140.251 18.4272 139.651 19.1771C139.049 19.9256 138.25 20.3013 137.252 20.3013H137.253ZM160.145 25.6481C163.706 25.6481 166.485 24.6144 168.481 22.5497L165.588 18.6657C164.16 19.8242 162.549 20.4027 160.757 20.4027C159.397 20.4027 158.291 20.0956 157.439 19.4842C156.589 18.87 156.164 18.2791 156.164 17.7115H169.331C169.445 17.303 169.501 16.7697 169.501 16.1116C169.501 13.2956 168.577 11.0706 166.729 9.435C164.879 7.79944 162.516 6.98234 159.634 6.98234C156.549 6.98234 154.112 7.90226 152.32 9.7421C150.528 11.5806 149.632 13.7947 149.632 16.3831C149.632 19.04 150.577 21.2486 152.472 23.009C154.367 24.7679 156.924 25.6481 160.145 25.6481V25.6481ZM163.173 14.476H156.164C156.209 13.6356 156.573 12.9954 157.253 12.5512C157.933 12.1084 158.739 11.8877 159.668 11.8877C160.598 11.8877 161.404 12.1139 162.084 12.569C162.765 13.0228 163.127 13.659 163.173 14.476Z" fill="#2C7566"/>
</svg>
